<svg xmlns="http://www.w3.org/2000/svg" viewBox="0 0 1000 1000">
  <circle cx="500" cy="500" r="500" fill="#D48C80"/>
  <circle cx="500" cy="500" r="465" fill="none" stroke="#FFFFFF" stroke-width="8"/>
  <g fill="#FFFFFF" transform="translate(190 606.6790580428717) scale(0.42072510665275153 -0.42072510665275153)">
    <path transform="translate(0 0)" d="M453 0L453 131L557 131L557 0ZM40 0L40 131L400 131L300 45L300 196Q300 265 286 303Q272 341 240 356.5Q208 372 152 372L71 372L71 503L152 503Q249 503 316 471Q383 439 418 371.5Q453 304 453 196L453 0ZM557 0L557 131Q563 131 566.5 126.5Q570 122 572.5 113.5Q575 105 576 93Q577 81 577 66Q577 51 576 38.5Q575 26 572.5 17.5Q570 9 566.5 4.5Q563 0 557 0Z"/>
    <path transform="translate(557.0662038871312 0)" d="M177 20Q128 69 103.5 121Q79 173 79 232Q79 293 101.5 342.5Q124 392 163.5 428Q203 464 254 483.5Q305 503 362 503Q392 503 424.5 497Q457 491 487 481L443 357Q424 364 405 368Q386 372 367 372Q327 372 296 354Q265 336 248.5 305.5Q232 275 232 234Q232 199 246 168Q260 137 289 110ZM0 0L0 131L496 131L496 0ZM0 0Q-5 0 -9 4.5Q-13 9 -15 17.5Q-17 26 -18.5 38.5Q-20 51 -20 66Q-20 86 -18 100.5Q-16 115 -11.5 123Q-7 131 0 131ZM227 596L227 718L381 718L381 596Z"/>
    <path transform="translate(1130.592172725812 0)" d="M47 -258Q36 -258 20 -256.5Q4 -255 -13 -254L-8 -125Q8 -125 23 -126Q38 -127 45 -127Q82 -127 103.5 -98Q125 -69 125 -14L125 503L278 503L278 -14Q278 -85 249 -140.5Q220 -196 168 -227Q116 -258 47 -258Z"/>
  </g>
</svg>